REM DIRINDEX 1\3,1\4,1\5,1\6,1\2\7,1\2\8,1\2\9,1\2\10,1\2\11
REM DIRNAME folder01,folder02,folder03,folder04,folder05,folder06,folder07,folder08,folder09,folder10,folder11
TITLE ""
FILE "DISC1Track02.mp3" MP3
  TRACK 01 AUDIO
    TITLE "0:"
    INDEX 01 00:00:00
  TRACK 02 AUDIO
    TITLE "7:cjc021_0120"
    INDEX 01 00:03:31
  TRACK 03 AUDIO
    TITLE "0:"
    INDEX 01 00:04:40
  TRACK 04 AUDIO
    TITLE "9:cjc021_0121"
    INDEX 01 00:05:40
  TRACK 05 AUDIO
    TITLE "0:"
    INDEX 01 00:06:59
  TRACK 06 AUDIO
    TITLE "11:cjc021_0122"
    INDEX 01 00:07:33
  TRACK 07 AUDIO
    TITLE "0:"
    INDEX 01 00:08:01
  TRACK 08 AUDIO
    TITLE "11:cjc021_0123"
    INDEX 01 00:08:44
  TRACK 09 AUDIO
    TITLE "0:"
    INDEX 01 00:09:53
  TRACK 10 AUDIO
    TITLE "11:cjc021_0124"
    INDEX 01 00:10:08
  TRACK 11 AUDIO
    TITLE "0:"
    INDEX 01 00:11:17
  TRACK 12 AUDIO
    TITLE "11:cjc021_0125"
    INDEX 01 00:11:44
  TRACK 13 AUDIO
    TITLE "0:"
    INDEX 01 00:12:38
  TRACK 14 AUDIO
    TITLE "9:cjc021_0126"
    INDEX 01 00:13:71
  TRACK 15 AUDIO
    TITLE "0:"
    INDEX 01 00:15:17
  TRACK 16 AUDIO
    TITLE "11:cjc021_0127"
    INDEX 01 00:15:66
  TRACK 17 AUDIO
    TITLE "0:"
    INDEX 01 00:16:38
  TRACK 18 AUDIO
    TITLE "11:cjc021_0128"
    INDEX 01 00:17:06
  TRACK 19 AUDIO
    TITLE "0:"
    INDEX 01 00:18:07
  TRACK 20 AUDIO
    TITLE "11:cjc021_0129"
    INDEX 01 00:18:35
  TRACK 21 AUDIO
    TITLE "0:"
    INDEX 01 00:19:38
  TRACK 22 AUDIO
    TITLE "11:cjc021_0130"
    INDEX 01 00:19:65
  TRACK 23 AUDIO
    TITLE "0:"
    INDEX 01 00:21:13
  TRACK 24 AUDIO
    TITLE "9:cjc021_0131"
    INDEX 01 00:22:44
  TRACK 25 AUDIO
    TITLE "0:"
    INDEX 01 00:23:67
  TRACK 26 AUDIO
    TITLE "11:cjc021_0132"
    INDEX 01 00:24:41
  TRACK 27 AUDIO
    TITLE "0:"
    INDEX 01 00:25:17
  TRACK 28 AUDIO
    TITLE "11:cjc021_0133"
    INDEX 01 00:25:58
  TRACK 29 AUDIO
    TITLE "0:"
    INDEX 01 00:26:62
  TRACK 30 AUDIO
    TITLE "11:cjc021_0134"
    INDEX 01 00:27:12
  TRACK 31 AUDIO
    TITLE "0:"
    INDEX 01 00:28:15
  TRACK 32 AUDIO
    TITLE "11:cjc021_0135"
    INDEX 01 00:28:41
  TRACK 33 AUDIO
    TITLE "0:"
    INDEX 01 00:29:52
  TRACK 34 AUDIO
    TITLE "9:cjc021_0136"
    INDEX 01 00:31:12
  TRACK 35 AUDIO
    TITLE "0:"
    INDEX 01 00:32:35
  TRACK 36 AUDIO
    TITLE "11:cjc021_0137"
    INDEX 01 00:33:09
  TRACK 37 AUDIO
    TITLE "0:"
    INDEX 01 00:33:52
  TRACK 38 AUDIO
    TITLE "11:cjc021_0138"
    INDEX 01 00:34:20
  TRACK 39 AUDIO
    TITLE "0:"
    INDEX 01 00:35:27
  TRACK 40 AUDIO
    TITLE "11:cjc021_0139"
    INDEX 01 00:35:53
  TRACK 41 AUDIO
    TITLE "0:"
    INDEX 01 00:36:74
  TRACK 42 AUDIO
    TITLE "11:cjc021_0140"
    INDEX 01 00:37:28
  TRACK 43 AUDIO
    TITLE "0:"
    INDEX 01 00:38:39
  TRACK 44 AUDIO
    TITLE "9:cjc021_0141"
    INDEX 01 00:39:70
  TRACK 45 AUDIO
    TITLE "0:"
    INDEX 01 00:41:26
  TRACK 46 AUDIO
    TITLE "11:cjc021_0142"
    INDEX 01 00:41:71
  TRACK 47 AUDIO
    TITLE "0:"
    INDEX 01 00:42:43
  TRACK 48 AUDIO
    TITLE "11:cjc021_0143"
    INDEX 01 00:43:11
  TRACK 49 AUDIO
    TITLE "0:"
    INDEX 01 00:44:24
  TRACK 50 AUDIO
    TITLE "11:cjc021_0144"
    INDEX 01 00:44:52
  TRACK 51 AUDIO
    TITLE "0:"
    INDEX 01 00:45:59
  TRACK 52 AUDIO
    TITLE "11:cjc021_0145"
    INDEX 01 00:46:11
  TRACK 53 AUDIO
    TITLE "0:"
    INDEX 01 00:47:23
  TRACK 54 AUDIO
    TITLE "9:cjc021_0146"
    INDEX 01 00:48:53
  TRACK 55 AUDIO
    TITLE "0:"
    INDEX 01 00:50:03
  TRACK 56 AUDIO
    TITLE "11:cjc021_0147"
    INDEX 01 00:50:48
  TRACK 57 AUDIO
    TITLE "0:"
    INDEX 01 00:51:24
  TRACK 58 AUDIO
    TITLE "11:cjc021_0148"
    INDEX 01 00:51:67
  TRACK 59 AUDIO
    TITLE "0:"
    INDEX 01 00:53:08
  TRACK 60 AUDIO
    TITLE "11:cjc021_0149"
    INDEX 01 00:53:35
  TRACK 61 AUDIO
    TITLE "0:"
    INDEX 01 00:54:40
  TRACK 62 AUDIO
    TITLE "11:cjc021_0150"
    INDEX 01 00:54:68
  TRACK 63 AUDIO
    TITLE "0:"
    INDEX 01 00:56:08
  TRACK 64 AUDIO
    TITLE "9:cjc021_0151"
    INDEX 01 00:57:39
  TRACK 65 AUDIO
    TITLE "0:"
    INDEX 01 00:58:62
  TRACK 66 AUDIO
    TITLE "11:cjc021_0152"
    INDEX 01 00:59:36
  TRACK 67 AUDIO
    TITLE "0:"
    INDEX 01 01:00:08
  TRACK 68 AUDIO
    TITLE "11:cjc021_0153"
    INDEX 01 01:00:51
  TRACK 69 AUDIO
    TITLE "0:"
    INDEX 01 01:01:62
  TRACK 70 AUDIO
    TITLE "11:cjc021_0154"
    INDEX 01 01:02:16
  TRACK 71 AUDIO
    TITLE "0:"
    INDEX 01 01:03:10
  TRACK 72 AUDIO
    TITLE "11:cjc021_0155"
    INDEX 01 01:03:39
  TRACK 73 AUDIO
    TITLE "0:"
    INDEX 01 01:04:56
  TRACK 74 AUDIO
    TITLE "9:cjc021_0156"
    INDEX 01 01:06:12
  TRACK 75 AUDIO
    TITLE "0:"
    INDEX 01 01:07:29
  TRACK 76 AUDIO
    TITLE "11:cjc021_0157"
    INDEX 01 01:08:01
  TRACK 77 AUDIO
    TITLE "0:"
    INDEX 01 01:08:52
  TRACK 78 AUDIO
    TITLE "11:cjc021_0158"
    INDEX 01 01:09:20
  TRACK 79 AUDIO
    TITLE "0:"
    INDEX 01 01:10:20
  TRACK 80 AUDIO
    TITLE "11:cjc021_0159"
    INDEX 01 01:10:47
  TRACK 81 AUDIO
    TITLE "0:"
    INDEX 01 01:11:54
  TRACK 82 AUDIO
    TITLE "11:cjc021_0160"
    INDEX 01 01:12:07
  TRACK 83 AUDIO
    TITLE "0:"
    INDEX 01 01:13:02
  TRACK 84 AUDIO
    TITLE "9:cjc021_0161"
    INDEX 01 01:14:33
  TRACK 85 AUDIO
    TITLE "0:"
    INDEX 01 01:15:56
  TRACK 86 AUDIO
    TITLE "11:cjc021_0162"
    INDEX 01 01:16:30
  TRACK 87 AUDIO
    TITLE "0:"
    INDEX 01 01:17:20
  TRACK 88 AUDIO
    TITLE "11:cjc021_0163"
    INDEX 01 01:17:69
  TRACK 89 AUDIO
    TITLE "0:"
    INDEX 01 01:18:70
  TRACK 90 AUDIO
    TITLE "11:cjc021_0164"
    INDEX 01 01:19:23
  TRACK 91 AUDIO
    TITLE "0:"
    INDEX 01 01:20:26
  TRACK 92 AUDIO
    TITLE "11:cjc021_0165"
    INDEX 01 01:20:51
  TRACK 93 AUDIO
    TITLE "0:"
    INDEX 01 01:21:53
  TRACK 94 AUDIO
    TITLE "9:cjc021_0166"
    INDEX 01 01:23:13
  TRACK 95 AUDIO
    TITLE "0:"
    INDEX 01 01:24:32
  TRACK 96 AUDIO
    TITLE "11:cjc021_0167"
    INDEX 01 01:25:06
  TRACK 97 AUDIO
    TITLE "0:"
    INDEX 01 01:25:53
  TRACK 98 AUDIO
    TITLE "11:cjc021_0168"
    INDEX 01 01:26:21
  TRACK 99 AUDIO
    TITLE "0:"
    INDEX 01 01:27:32
  TRACK 100 AUDIO
    TITLE "11:cjc021_0169"
    INDEX 01 01:27:59
  TRACK 101 AUDIO
    TITLE "0:"
    INDEX 01 01:28:67
  TRACK 102 AUDIO
    TITLE "11:cjc021_0170"
    INDEX 01 01:29:21
  TRACK 103 AUDIO
    TITLE "0:"
    INDEX 01 01:30:30
  TRACK 104 AUDIO
    TITLE "9:cjc021_0171"
    INDEX 01 01:31:63
  TRACK 105 AUDIO
    TITLE "0:"
    INDEX 01 01:33:17
  TRACK 106 AUDIO
    TITLE "11:cjc021_0172"
    INDEX 01 01:33:64
  TRACK 107 AUDIO
    TITLE "0:"
    INDEX 01 01:34:40
  TRACK 108 AUDIO
    TITLE "11:cjc021_0173"
    INDEX 01 01:35:10
  TRACK 109 AUDIO
    TITLE "0:"
    INDEX 01 01:36:15
  TRACK 110 AUDIO
    TITLE "11:cjc021_0174"
    INDEX 01 01:36:43
  TRACK 111 AUDIO
    TITLE "0:"
    INDEX 01 01:37:52
  TRACK 112 AUDIO
    TITLE "11:cjc021_0175"
    INDEX 01 01:38:06
  TRACK 113 AUDIO
    TITLE "0:"
    INDEX 01 01:39:31
  TRACK 114 AUDIO
    TITLE "9:cjc021_0176"
    INDEX 01 01:40:60
  TRACK 115 AUDIO
    TITLE "0:"
    INDEX 01 01:42:14
  TRACK 116 AUDIO
    TITLE "11:cjc021_0177"
    INDEX 01 01:42:61
  TRACK 117 AUDIO
    TITLE "0:"
    INDEX 01 01:43:35
  TRACK 118 AUDIO
    TITLE "11:cjc021_0178"
    INDEX 01 01:44:03
  TRACK 119 AUDIO
    TITLE "0:"
    INDEX 01 01:45:08
  TRACK 120 AUDIO
    TITLE "11:cjc021_0179"
    INDEX 01 01:45:36
  TRACK 121 AUDIO
    TITLE "0:"
    INDEX 01 01:46:41
  TRACK 122 AUDIO
    TITLE "11:cjc021_0180"
    INDEX 01 01:46:70
  TRACK 123 AUDIO
    TITLE "0:"
    INDEX 01 01:48:07
  TRACK 124 AUDIO
    TITLE "9:cjc021_0181"
    INDEX 01 01:49:39
  TRACK 125 AUDIO
    TITLE "0:"
    INDEX 01 01:51:01
  TRACK 126 AUDIO
    TITLE "11:cjc021_0182"
    INDEX 01 01:51:48
  TRACK 127 AUDIO
    TITLE "0:"
    INDEX 01 01:52:22
  TRACK 128 AUDIO
    TITLE "11:cjc021_0183"
    INDEX 01 01:52:65
  TRACK 129 AUDIO
    TITLE "0:"
    INDEX 01 01:54:01
  TRACK 130 AUDIO
    TITLE "11:cjc021_0184"
    INDEX 01 01:54:29
  TRACK 131 AUDIO
    TITLE "0:"
    INDEX 01 01:55:34
  TRACK 132 AUDIO
    TITLE "11:cjc021_0185"
    INDEX 01 01:55:63
  TRACK 133 AUDIO
    TITLE "0:"
    INDEX 01 01:56:71
  TRACK 134 AUDIO
    TITLE "9:cjc021_0186"
    INDEX 01 01:58:29
  TRACK 135 AUDIO
    TITLE "0:"
    INDEX 01 01:59:71
  TRACK 136 AUDIO
    TITLE "11:cjc021_0187"
    INDEX 01 02:00:47
  TRACK 137 AUDIO
    TITLE "0:"
    INDEX 01 02:01:17
  TRACK 138 AUDIO
    TITLE "11:cjc021_0188"
    INDEX 01 02:01:66
  TRACK 139 AUDIO
    TITLE "0:"
    INDEX 01 02:03:06
  TRACK 140 AUDIO
    TITLE "11:cjc021_0189"
    INDEX 01 02:03:32
  TRACK 141 AUDIO
    TITLE "0:"
    INDEX 01 02:04:27
  TRACK 142 AUDIO
    TITLE "11:cjc021_0190"
    INDEX 01 02:04:68
  TRACK 143 AUDIO
    TITLE "0:"
    INDEX 01 02:06:12
  TRACK 144 AUDIO
    TITLE "9:cjc021_0191"
    INDEX 01 02:07:45
  TRACK 145 AUDIO
    TITLE "0:"
    INDEX 01 02:09:13
  TRACK 146 AUDIO
    TITLE "11:cjc021_0192"
    INDEX 01 02:09:62
  TRACK 147 AUDIO
    TITLE "0:"
    INDEX 01 02:10:40
  TRACK 148 AUDIO
    TITLE "11:cjc021_0193"
    INDEX 01 02:11:06
  TRACK 149 AUDIO
    TITLE "0:"
    INDEX 01 02:12:11
  TRACK 150 AUDIO
    TITLE "11:cjc021_0194"
    INDEX 01 02:12:38
  TRACK 151 AUDIO
    TITLE "0:"
    INDEX 01 02:13:50
  TRACK 152 AUDIO
    TITLE "11:cjc021_0195"
    INDEX 01 02:14:04
  TRACK 153 AUDIO
    TITLE "0:"
    INDEX 01 02:15:19
  TRACK 154 AUDIO
    TITLE "9:cjc021_0196"
    INDEX 01 02:16:54
  TRACK 155 AUDIO
    TITLE "0:"
    INDEX 01 02:18:29
  TRACK 156 AUDIO
    TITLE "11:cjc021_0197"
    INDEX 01 02:19:01
  TRACK 157 AUDIO
    TITLE "0:"
    INDEX 01 02:19:50
  TRACK 158 AUDIO
    TITLE "11:cjc021_0198"
    INDEX 01 02:20:16
  TRACK 159 AUDIO
    TITLE "0:"
    INDEX 01 02:21:30
  TRACK 160 AUDIO
    TITLE "11:cjc021_0199"
    INDEX 01 02:21:57
  TRACK 161 AUDIO
    TITLE "0:"
    INDEX 01 02:22:66
  TRACK 162 AUDIO
    TITLE "11:cjc021_0200"
    INDEX 01 02:23:19
  TRACK 163 AUDIO
    TITLE "0:"
    INDEX 01 02:24:22
  TRACK 164 AUDIO
    TITLE "9:cjc021_0201"
    INDEX 01 02:25:57
  TRACK 165 AUDIO
    TITLE "0:"
    INDEX 01 02:27:26
  TRACK 166 AUDIO
    TITLE "11:cjc021_0202"
    INDEX 01 02:27:73
  TRACK 167 AUDIO
    TITLE "0:"
    INDEX 01 02:28:51
  TRACK 168 AUDIO
    TITLE "11:cjc021_0203"
    INDEX 01 02:29:17
  TRACK 169 AUDIO
    TITLE "0:"
    INDEX 01 02:30:29
  TRACK 170 AUDIO
    TITLE "11:cjc021_0204"
    INDEX 01 02:30:54
  TRACK 171 AUDIO
    TITLE "0:"
    INDEX 01 02:32:10
  TRACK 172 AUDIO
    TITLE "11:cjc021_0205"
    INDEX 01 02:32:39
  TRACK 173 AUDIO
    TITLE "0:"
    INDEX 01 02:33:48
  TRACK 174 AUDIO
    TITLE "9:cjc021_0206"
    INDEX 01 02:35:04
  TRACK 175 AUDIO
    TITLE "0:"
    INDEX 01 02:36:49
  TRACK 176 AUDIO
    TITLE "11:cjc021_0207"
    INDEX 01 02:37:23
  TRACK 177 AUDIO
    TITLE "0:"
    INDEX 01 02:37:74
  TRACK 178 AUDIO
    TITLE "11:cjc021_0208"
    INDEX 01 02:38:40
  TRACK 179 AUDIO
    TITLE "0:"
    INDEX 01 02:39:59
  TRACK 180 AUDIO
    TITLE "11:cjc021_0209"
    INDEX 01 02:40:11
  TRACK 181 AUDIO
    TITLE "0:"
    INDEX 01 02:41:05
  TRACK 182 AUDIO
    TITLE "11:cjc021_0210"
    INDEX 01 02:41:38
  TRACK 183 AUDIO
    TITLE "0:"
    INDEX 01 02:42:45
  TRACK 184 AUDIO
    TITLE "9:cjc021_0211"
    INDEX 01 02:44:01
  TRACK 185 AUDIO
    TITLE "0:"
    INDEX 01 02:45:44
  TRACK 186 AUDIO
    TITLE "11:cjc021_0212"
    INDEX 01 02:46:14
  TRACK 187 AUDIO
    TITLE "0:"
    INDEX 01 02:46:65
  TRACK 188 AUDIO
    TITLE "11:cjc021_0213"
    INDEX 01 02:47:33
  TRACK 189 AUDIO
    TITLE "0:"
    INDEX 01 02:48:50
  TRACK 190 AUDIO
    TITLE "11:cjc021_0214"
    INDEX 01 02:49:06
  TRACK 191 AUDIO
    TITLE "0:"
    INDEX 01 02:50:21
  TRACK 192 AUDIO
    TITLE "11:cjc021_0215"
    INDEX 01 02:50:47
  TRACK 193 AUDIO
    TITLE "0:"
    INDEX 01 02:51:70
  TRACK 194 AUDIO
    TITLE "9:cjc021_0216"
    INDEX 01 02:53:30
  TRACK 195 AUDIO
    TITLE "0:"
    INDEX 01 02:54:47
  TRACK 196 AUDIO
    TITLE "11:cjc021_0217"
    INDEX 01 02:55:21
  TRACK 197 AUDIO
    TITLE "0:"
    INDEX 01 02:55:74
  TRACK 198 AUDIO
    TITLE "11:cjc021_0218"
    INDEX 01 02:56:46
  TRACK 199 AUDIO
    TITLE "0:"
    INDEX 01 02:57:53
  TRACK 200 AUDIO
    TITLE "11:cjc021_0219"
    INDEX 01 02:58:07
  TRACK 201 AUDIO
    TITLE "0:"
    INDEX 01 02:59:07
  TRACK 202 AUDIO
    TITLE "11:cjc021_0220"
    INDEX 01 02:59:40
  TRACK 203 AUDIO
    TITLE "0:"
    INDEX 01 03:00:41
  TRACK 204 AUDIO
    TITLE "9:cjc021_0221"
    INDEX 01 03:01:72
  TRACK 205 AUDIO
    TITLE "0:"
    INDEX 01 03:03:44
  TRACK 206 AUDIO
    TITLE "11:cjc021_0222"
    INDEX 01 03:04:16
  TRACK 207 AUDIO
    TITLE "0:"
    INDEX 01 03:04:65
  TRACK 208 AUDIO
    TITLE "11:cjc021_0223"
    INDEX 01 03:05:33
  TRACK 209 AUDIO
    TITLE "0:"
    INDEX 01 03:06:44
  TRACK 210 AUDIO
    TITLE "11:cjc021_0224"
    INDEX 01 03:06:73
  TRACK 211 AUDIO
    TITLE "0:"
    INDEX 01 03:08:02
  TRACK 212 AUDIO
    TITLE "11:cjc021_0225"
    INDEX 01 03:08:29
  TRACK 213 AUDIO
    TITLE "0:"
    INDEX 01 03:09:38
  TRACK 214 AUDIO
    TITLE "9:cjc021_0226"
    INDEX 01 03:10:69
  TRACK 215 AUDIO
    TITLE "0:"
    INDEX 01 03:12:41
  TRACK 216 AUDIO
    TITLE "11:cjc021_0227"
    INDEX 01 03:13:13
  TRACK 217 AUDIO
    TITLE "0:"
    INDEX 01 03:13:62
  TRACK 218 AUDIO
    TITLE "11:cjc021_0228"
    INDEX 01 03:14:30
  TRACK 219 AUDIO
    TITLE "0:"
    INDEX 01 03:15:41
  TRACK 220 AUDIO
    TITLE "11:cjc021_0229"
    INDEX 01 03:15:70
  TRACK 221 AUDIO
    TITLE "0:"
    INDEX 01 03:17:07
  TRACK 222 AUDIO
    TITLE "11:cjc021_0230"
    INDEX 01 03:17:34
  TRACK 223 AUDIO
    TITLE "0:"
    INDEX 01 03:18:39
  TRACK 224 AUDIO
    TITLE "9:cjc021_0231"
    INDEX 01 03:19:70
  TRACK 225 AUDIO
    TITLE "0:"
    INDEX 01 03:21:47
  TRACK 226 AUDIO
    TITLE "11:cjc021_0232"
    INDEX 01 03:22:19
  TRACK 227 AUDIO
    TITLE "0:"
    INDEX 01 03:22:72
  TRACK 228 AUDIO
    TITLE "11:cjc021_0233"
    INDEX 01 03:23:39
  TRACK 229 AUDIO
    TITLE "0:"
    INDEX 01 03:24:44
  TRACK 230 AUDIO
    TITLE "11:cjc021_0234"
    INDEX 01 03:24:73
  TRACK 231 AUDIO
    TITLE "0:"
    INDEX 01 03:26:06
  TRACK 232 AUDIO
    TITLE "11:cjc021_0235"
    INDEX 01 03:26:31
  TRACK 233 AUDIO
    TITLE "0:"
    INDEX 01 03:27:44
  TRACK 234 AUDIO
    TITLE "9:cjc021_0236"
    INDEX 01 03:29:02
  TRACK 235 AUDIO
    TITLE "0:"
    INDEX 01 03:30:54
  TRACK 236 AUDIO
    TITLE "11:cjc021_0237"
    INDEX 01 03:31:28
  TRACK 237 AUDIO
    TITLE "0:"
    INDEX 01 03:32:02
  TRACK 238 AUDIO
    TITLE "11:cjc021_0238"
    INDEX 01 03:32:51
  TRACK 239 AUDIO
    TITLE "0:"
    INDEX 01 03:33:55
  TRACK 240 AUDIO
    TITLE "11:cjc021_0239"
    INDEX 01 03:34:11
  TRACK 241 AUDIO
    TITLE "0:"
    INDEX 01 03:35:14
  TRACK 242 AUDIO
    TITLE "11:cjc021_0240"
    INDEX 01 03:35:46
  TRACK 243 AUDIO
    TITLE "0:"
    INDEX 01 03:36:53
  TRACK 244 AUDIO
    TITLE "9:cjc021_0241"
    INDEX 01 03:38:09
  TRACK 245 AUDIO
    TITLE "0:"
    INDEX 01 03:39:59
  TRACK 246 AUDIO
    TITLE "11:cjc021_0242"
    INDEX 01 03:40:33
  TRACK 247 AUDIO
    TITLE "0:"
    INDEX 01 03:41:05
  TRACK 248 AUDIO
    TITLE "11:cjc021_0243"
    INDEX 01 03:41:48
  TRACK 249 AUDIO
    TITLE "0:"
    INDEX 01 03:42:57
  TRACK 250 AUDIO
    TITLE "11:cjc021_0244"
    INDEX 01 03:43:10
  TRACK 251 AUDIO
    TITLE "0:"
    INDEX 01 03:44:15
  TRACK 252 AUDIO
    TITLE "11:cjc021_0245"
    INDEX 01 03:44:43
  TRACK 253 AUDIO
    TITLE "0:"
    INDEX 01 03:45:50
